<?xml version="1.0" encoding="utf-8"?>
<!-- Generator: Adobe Illustrator 21.0.0, SVG Export Plug-In . SVG Version: 6.00 Build 0)  -->
<svg version="1.1" id="Layer_1" xmlns="http://www.w3.org/2000/svg" xmlns:xlink="http://www.w3.org/1999/xlink" x="0px" y="0px"
	 viewBox="0 0 61 61" style="enable-background:new 0 0 61 61;" xml:space="preserve">
<style type="text/css">
	.st0{fill:#455A64;stroke:#424242;stroke-linecap:round;stroke-linejoin:round;stroke-miterlimit:10;}
	.st1{fill:none;stroke:#546E7A;stroke-linecap:round;stroke-linejoin:round;stroke-miterlimit:10;}
	.st2{fill:#546E7A;stroke:#424242;stroke-linecap:round;stroke-linejoin:round;stroke-miterlimit:10;}
	.st3{fill:none;stroke:#78909C;stroke-linecap:round;stroke-linejoin:round;stroke-miterlimit:10;}
	.st4{fill:none;stroke:#455A64;stroke-linecap:round;stroke-linejoin:round;stroke-miterlimit:10;}
	.st5{fill:#FFA726;stroke:#424242;stroke-linecap:round;stroke-linejoin:round;stroke-miterlimit:10;}
	.st6{fill:none;stroke:#FB8C00;stroke-linecap:round;stroke-linejoin:round;stroke-miterlimit:10;}
	.st7{fill:none;stroke:#FFCC80;stroke-linecap:round;stroke-linejoin:round;stroke-miterlimit:10;}
	.st8{fill:#CFD8DC;stroke:#424242;stroke-linecap:round;stroke-linejoin:round;stroke-miterlimit:10;}
	.st9{fill:none;stroke:#ECEFF1;stroke-linecap:round;stroke-linejoin:round;stroke-miterlimit:10;}
	.st10{fill:none;stroke:#B0BEC5;stroke-linecap:round;stroke-linejoin:round;stroke-miterlimit:10;}
	.st11{fill:none;stroke:#424242;stroke-linecap:round;stroke-linejoin:round;stroke-miterlimit:10;}
	.st12{fill:#EC407A;stroke:#424242;stroke-linecap:round;stroke-linejoin:round;stroke-miterlimit:10;}
	.st13{fill:none;stroke:#F48FB1;stroke-linecap:round;stroke-linejoin:round;stroke-miterlimit:10;}
	.st14{fill:none;stroke:#D81B60;stroke-linecap:round;stroke-linejoin:round;stroke-miterlimit:10;}
	.st15{fill:#ECEFF1;stroke:#424242;stroke-linecap:round;stroke-linejoin:round;stroke-miterlimit:10;}
	.st16{fill:#26C6DA;stroke:#424242;stroke-linecap:round;stroke-linejoin:round;stroke-miterlimit:10;}
	.st17{fill:none;stroke:#00ACC1;stroke-linecap:round;stroke-linejoin:round;stroke-miterlimit:10;}
	.st18{fill:none;stroke:#80DEEA;stroke-linecap:round;stroke-linejoin:round;stroke-miterlimit:10;}
	.st19{fill:#B0BEC5;stroke:#424242;stroke-linecap:round;stroke-linejoin:round;stroke-miterlimit:10;}
	.st20{fill:none;stroke:#CFD8DC;stroke-linecap:round;stroke-linejoin:round;stroke-miterlimit:10;}
	.st21{fill:#E0E0E0;stroke:#424242;stroke-linecap:round;stroke-linejoin:round;stroke-miterlimit:10;}
	.st22{fill:#F57F17;stroke:#424242;stroke-linecap:round;stroke-linejoin:round;stroke-miterlimit:10;}
	.st23{fill:none;stroke:#F57F17;stroke-linecap:round;stroke-linejoin:round;stroke-miterlimit:10;}
	.st24{fill:#FB8C00;stroke:#424242;stroke-miterlimit:10;}
	.st25{fill:none;stroke:#0097A7;stroke-linecap:round;stroke-linejoin:round;stroke-miterlimit:10;}
	.st26{fill:#26C6DA;stroke:#0097A7;stroke-linecap:round;stroke-linejoin:round;stroke-miterlimit:10;}
	.st27{fill:none;stroke:#90A4AE;stroke-linecap:round;stroke-linejoin:round;stroke-miterlimit:10;}
	.st28{fill:#CFD8DC;}
	.st29{fill:none;stroke:#424242;stroke-linecap:round;stroke-linejoin:round;}
	.st30{fill:none;stroke:#424242;stroke-linecap:round;stroke-linejoin:round;stroke-dasharray:4.0714,4.0714;}
	.st31{fill:#90A4AE;stroke:#424242;stroke-linecap:round;stroke-linejoin:round;stroke-miterlimit:10;}
	.st32{fill:none;stroke:#78909C;stroke-linecap:round;stroke-miterlimit:10;}
	.st33{fill:none;stroke:#455A64;stroke-linecap:round;stroke-miterlimit:10;}
	.st34{fill:#78909C;stroke:#424242;stroke-linecap:round;stroke-linejoin:round;stroke-miterlimit:10;}
	.st35{fill:none;stroke:#546E7A;stroke-linecap:round;stroke-miterlimit:10;}
	.st36{fill:none;stroke:#FFA726;stroke-linecap:round;stroke-linejoin:round;stroke-miterlimit:10;}
	.st37{fill:#4DD0E1;stroke:#424242;stroke-linecap:round;stroke-linejoin:round;stroke-miterlimit:10;}
	.st38{fill:#00ACC1;stroke:#424242;stroke-linecap:round;stroke-linejoin:round;stroke-miterlimit:10;}
	.st39{fill:#D81B60;stroke:#424242;stroke-linecap:round;stroke-linejoin:round;stroke-miterlimit:10;}
	.st40{fill:none;stroke:#C2185B;stroke-linecap:round;stroke-linejoin:round;stroke-miterlimit:10;}
	.st41{fill:#FB8C00;stroke:#424242;stroke-linecap:round;stroke-linejoin:round;stroke-miterlimit:10;}
	.st42{fill:none;stroke:#37474F;stroke-linecap:round;stroke-linejoin:round;stroke-miterlimit:10;}
	.st43{fill:#B0BEC5;stroke:#424242;stroke-miterlimit:10;}
	.st44{fill:#37474F;stroke:#424242;stroke-linecap:round;stroke-linejoin:round;stroke-miterlimit:10;}
	.st45{fill:#F5F5F5;stroke:#424242;stroke-linecap:round;stroke-linejoin:round;stroke-miterlimit:10;}
	.st46{fill:none;stroke:#FAFAFA;stroke-linecap:round;stroke-linejoin:round;stroke-miterlimit:10;}
	.st47{fill:#F06292;stroke:#424242;stroke-linecap:round;stroke-linejoin:round;stroke-miterlimit:10;}
	.st48{fill:#F48FB1;stroke:#424242;stroke-linecap:round;stroke-linejoin:round;stroke-miterlimit:10;}
</style>
<g id="Clip_Editing_Montage">
	<path class="st0" d="M52.5,50.5h-48c-1.7,0-3-1.3-3-3v-39c0-1.7,1.3-3,3-3h48c1.7,0,3,1.3,3,3v39C55.5,49.2,54.2,50.5,52.5,50.5z"
		/>
	<path class="st19" d="M52.5,5.5h-48c-1.7,0-3,1.3-3,3v7h54v-7C55.5,6.8,54.2,5.5,52.5,5.5z"/>
	<path class="st19" d="M4.5,50.5h48c1.7,0,3-1.3,3-3v-7h-54v7C1.5,49.2,2.8,50.5,4.5,50.5z"/>
	<path class="st2" d="M56.5,50.5h-48c-1.7,0-3-1.3-3-3v-39c0-1.7,1.3-3,3-3h48c1.7,0,3,1.3,3,3v39C59.5,49.2,58.2,50.5,56.5,50.5z"
		/>
	<path class="st3" d="M7.5,47.5v-39"/>
	<path class="st8" d="M56.5,5.5h-48c-1.7,0-3,1.3-3,3v7h54v-7C59.5,6.8,58.2,5.5,56.5,5.5z"/>
	<path class="st0" d="M14,13h-3c-0.6,0-1-0.4-1-1V9c0-0.6,0.4-1,1-1h3c0.6,0,1,0.4,1,1v3C15,12.6,14.6,13,14,13z"/>
	<path class="st0" d="M24,13h-3c-0.6,0-1-0.4-1-1V9c0-0.6,0.4-1,1-1h3c0.6,0,1,0.4,1,1v3C25,12.6,24.6,13,24,13z"/>
	<path class="st0" d="M34,13h-3c-0.6,0-1-0.4-1-1V9c0-0.6,0.4-1,1-1h3c0.6,0,1,0.4,1,1v3C35,12.6,34.6,13,34,13z"/>
	<path class="st0" d="M44,13h-3c-0.6,0-1-0.4-1-1V9c0-0.6,0.4-1,1-1h3c0.6,0,1,0.4,1,1v3C45,12.6,44.6,13,44,13z"/>
	<path class="st0" d="M54,13h-3c-0.6,0-1-0.4-1-1V9c0-0.6,0.4-1,1-1h3c0.6,0,1,0.4,1,1v3C55,12.6,54.6,13,54,13z"/>
	<path class="st8" d="M8.5,50.5h48c1.7,0,3-1.3,3-3v-7h-54v7C5.5,49.2,6.8,50.5,8.5,50.5z"/>
	<path class="st0" d="M51,43h3c0.6,0,1,0.4,1,1v3c0,0.6-0.4,1-1,1h-3c-0.6,0-1-0.4-1-1v-3C50,43.4,50.4,43,51,43z"/>
	<path class="st0" d="M41,43h3c0.6,0,1,0.4,1,1v3c0,0.6-0.4,1-1,1h-3c-0.6,0-1-0.4-1-1v-3C40,43.4,40.4,43,41,43z"/>
	<path class="st0" d="M31,43h3c0.6,0,1,0.4,1,1v3c0,0.6-0.4,1-1,1h-3c-0.6,0-1-0.4-1-1v-3C30,43.4,30.4,43,31,43z"/>
	<path class="st0" d="M21,43h3c0.6,0,1,0.4,1,1v3c0,0.6-0.4,1-1,1h-3c-0.6,0-1-0.4-1-1v-3C20,43.4,20.4,43,21,43z"/>
	<path class="st0" d="M11,43h3c0.6,0,1,0.4,1,1v3c0,0.6-0.4,1-1,1h-3c-0.6,0-1-0.4-1-1v-3C10,43.4,10.4,43,11,43z"/>
	<line class="st11" x1="42.5" y1="0.5" x2="42.5" y2="3.5"/>
	<line class="st11" x1="42.5" y1="7" x2="42.5" y2="14"/>
	<line class="st11" x1="42.5" y1="17.5" x2="42.5" y2="23.5"/>
	<path class="st9" d="M7.5,15.5v-7"/>
	<path class="st9" d="M7.5,47.5v-7"/>
	<path class="st4" d="M57.5,48V9"/>
	<path class="st27" d="M57.5,15.5v-7"/>
	<path class="st27" d="M57.5,48v-7"/>
	<path class="st11" d="M56.5,5.5h-48c-1.7,0-3,1.3-3,3v7h54v-7C59.5,6.8,58.2,5.5,56.5,5.5z"/>
	<path class="st11" d="M8.5,50.5h48c1.7,0,3-1.3,3-3v-7h-54v7C5.5,49.2,6.8,50.5,8.5,50.5z"/>
	<g>
		<path class="st34" d="M43.8,37.6l-5.5,2.3l-7.5-18c-0.8-2,0.1-4.4,2.2-5.2l1.8-0.8L43.8,37.6z"/>
		<path class="st19" d="M44.3,37.4l-3.7,1.5l-7.5-18c-0.8-2,0.1-4.4,2.2-5.2l0,0L44.3,37.4z"/>
		<path class="st12" d="M48.7,48l-4.4-10.6l-6,2.5l6.9,16.6c1.4,3.3,5.2,4.9,8.5,3.5c3.3-1.4,4.9-5.2,3.5-8.5
			C55.8,48.2,52,46.6,48.7,48z M52.5,57.2c-1.8,0.7-3.8-0.1-4.6-1.9c-0.7-1.8,0.1-3.8,1.9-4.6c1.8-0.7,3.8,0.1,4.6,1.9
			C55.2,54.4,54.3,56.5,52.5,57.2z"/>
	</g>
	<g>
		<path class="st34" d="M41.2,37.6l5.5,2.3l7.5-18c0.8-2-0.1-4.4-2.2-5.2l-1.8-0.8L41.2,37.6z"/>
		<path class="st19" d="M40.7,37.4l3.7,1.5l7.5-18c0.8-2-0.1-4.4-2.2-5.2l0,0L40.7,37.4z"/>
		<path class="st12" d="M27.8,51.5c-1.4,3.3,0.2,7.1,3.5,8.5c3.3,1.4,7.1-0.2,8.5-3.5l6.9-16.6l-6-2.5L36.3,48
			C33,46.6,29.2,48.2,27.8,51.5z M30.6,52.7c0.7-1.8,2.8-2.6,4.6-1.9c1.8,0.7,2.6,2.8,1.9,4.6c-0.7,1.8-2.8,2.6-4.6,1.9
			C30.7,56.5,29.8,54.4,30.6,52.7z"/>
	</g>
	<circle class="st12" cx="42.8" cy="38.9" r="5"/>
	<path class="st13" d="M39.8,38.9c0-1.7,1.3-3,3-3"/>
</g>
</svg>
